<svg xmlns="http://www.w3.org/2000/svg" x="0px" y="0px" viewBox="0 0 1017 1016" class="svg-icon inline-block outline-none fill-token w-5  !w-10" focusable="false" data-testid="svg-icon"><path d="M 484.00,154.50
    C 378.50,226.50 547.00,342.00 572.00,209.00
      558.00,264.00 432.69,259.00 484.00,154.50 Z
    M 527.45,155.91
    C 527.45,155.91 517.36,175.82 517.36,175.82
      517.36,175.82 498.82,176.00 498.82,176.00
      498.82,176.00 514.00,190.91 514.00,190.91
      514.00,190.91 510.09,208.27 510.09,208.27
      510.09,208.27 527.27,198.73 527.27,198.73
      527.27,198.73 544.09,207.91 544.09,207.91
      544.09,207.91 540.45,190.91 540.45,190.91
      540.45,190.91 554.18,176.27 554.18,176.27
      554.18,176.27 537.00,175.82 537.00,175.82
      537.00,175.82 527.45,155.91 527.45,155.91 Z
    M 505.91,288.91
    C 497.18,288.09 493.09,304.55 501.27,310.00
      486.67,349.00 259.33,404.67 349.45,538.82
      349.45,538.82 374.27,532.64 374.27,532.64
      283.33,405.00 505.00,375.67 510.91,327.64
      547.67,399.33 763.67,422.00 636.82,530.18
      636.82,530.18 663.45,535.82 663.45,535.82
      772.67,406.67 556.00,367.00 519.64,310.09
      528.00,303.36 524.36,290.64 516.18,288.82
      516.18,288.82 515.91,269.45 515.91,269.45
      515.91,269.45 505.91,268.55 505.91,268.55
      505.91,268.55 505.91,288.91 505.91,288.91 Z
    M 412.00,422.00
    C 380.00,437.00 358.33,506.67 408.67,526.67
      377.67,493.00 393.33,439.67 412.00,422.00 Z
    M 511.00,606.33
    C 590.00,537.33 647.67,538.00 731.00,575.00
      731.00,575.00 512.00,676.00 512.00,676.00
      512.00,676.00 289.67,575.33 289.67,575.33
      373.33,535.33 429.67,538.00 511.00,606.33 Z
    M 322.00,574.00
    C 319.08,570.23 348.61,567.30 349.67,568.67
      349.67,568.67 511.33,645.00 511.33,645.00
      511.33,645.00 674.67,569.00 674.67,569.00
      686.86,566.32 709.23,573.41 702.00,575.00
      702.00,575.00 512.00,662.33 512.00,662.33
      512.00,662.33 322.00,574.00 322.00,574.00 Z
    M 254.50,585.00
    C 254.50,585.00 234.50,592.00 234.50,592.00
      234.50,592.00 489.00,712.00 489.00,712.00
      489.00,712.00 323.00,790.00 323.00,790.00
      323.00,790.00 357.50,791.00 357.50,791.00
      357.50,791.00 511.75,721.50 511.75,721.50
      511.75,721.50 665.75,790.75 665.75,790.75
      665.75,790.75 700.00,790.50 700.00,790.50
      700.00,790.50 533.75,712.75 533.75,712.75
      533.75,712.75 791.00,591.27 791.00,591.27
      791.00,591.27 768.27,584.73 768.27,584.73
      768.27,584.73 511.36,702.73 511.36,702.73
      511.36,702.73 254.50,585.00 254.50,585.00 Z
    M 509.53,30.06
    C 509.53,30.06 477.91,-1.18 477.91,-1.18
      477.91,-1.18 351.82,124.82 351.82,124.82
      351.82,124.82 128.09,124.91 128.09,124.91
      128.09,124.91 127.91,348.00 127.91,348.00
      127.91,348.00 0.00,475.55 0.00,475.55
      0.00,475.55 31.30,507.09 31.30,507.09
      31.30,507.09 45.02,494.06 45.02,494.06
      45.02,494.06 25.91,475.45 25.91,475.45
      25.91,475.45 145.91,355.64 145.91,355.64
      145.91,355.64 146.09,143.00 146.09,143.00
      146.09,143.00 358.00,143.00 358.00,143.00
      358.00,143.00 477.45,22.91 477.45,22.91
      477.45,22.91 497.09,42.49 497.09,42.49
      497.09,42.49 509.53,30.06 509.53,30.06 Z
    M 509.49,54.91
    C 509.49,54.91 497.09,42.49 497.09,42.49
      497.09,42.49 369.55,169.82 369.55,169.82
      369.55,169.82 172.06,170.00 172.06,170.00
      172.06,170.00 172.00,367.94 172.00,367.94
      172.00,367.94 45.02,494.05 45.02,494.05
      45.02,494.05 56.91,507.53 56.91,507.53
      56.91,507.53 190.75,373.69 190.75,373.69
      190.75,373.69 191.12,188.00 191.12,188.00
      191.12,188.00 376.75,187.88 376.75,187.88
      376.75,187.88 509.49,54.91 509.49,54.91 Z
    M 31.30,507.09
    C 31.30,507.09 44.35,519.83 44.35,519.83
      44.35,519.83 25.87,538.48 25.87,538.48
      25.87,538.48 145.18,657.27 145.18,657.27
      145.18,657.27 145.04,870.91 145.04,870.91
      145.04,870.91 358.78,871.04 358.78,871.04
      358.78,871.04 478.09,990.39 478.09,990.39
      478.09,990.39 497.04,971.57 497.04,971.57
      497.04,971.57 509.55,983.95 509.55,983.95
      509.55,983.95 478.06,1015.19 478.06,1015.19
      478.06,1015.19 352.00,888.94 352.00,888.94
      352.00,888.94 128.06,888.88 128.06,888.88
      128.06,888.88 128.00,665.06 128.00,665.06
      128.00,665.06 0.91,538.00 0.91,538.00
      0.91,538.00 31.30,507.09 31.30,507.09 Z
    M 44.35,519.82
    C 44.35,519.82 171.87,647.04 171.87,647.04
      171.87,647.04 171.96,845.91 171.96,845.91
      171.96,845.91 372.00,846.09 372.00,846.09
      372.00,846.09 497.04,971.55 497.04,971.55
      497.04,971.55 509.51,959.07 509.51,959.07
      509.51,959.07 377.92,827.00 377.92,827.00
      377.92,827.00 189.98,827.00 189.98,827.00
      189.98,827.00 190.00,639.75 190.00,639.75
      190.00,639.75 56.91,507.52 56.91,507.52
      56.91,507.52 44.35,519.82 44.35,519.82 Z
    M 522.33,971.77
    C 522.33,971.77 541.06,990.41 541.06,990.41
      541.06,990.41 660.03,871.00 660.03,871.00
      660.03,871.00 873.00,871.00 873.00,871.00
      873.00,871.00 873.00,657.02 873.00,657.02
      873.00,657.02 992.17,538.39 992.17,538.39
      992.17,538.39 973.44,519.93 973.44,519.93
      973.44,519.93 985.96,506.53 985.96,506.53
      985.96,506.53 1017.36,538.09 1017.36,538.09
      1017.36,538.09 890.82,664.27 890.82,664.27
      890.82,664.27 890.82,889.00 890.82,889.00
      890.82,889.00 666.00,889.27 666.00,889.27
      666.00,889.27 540.41,1015.06 540.41,1015.06
      540.41,1015.06 509.55,983.95 509.55,983.95
      509.55,983.95 522.33,971.77 522.33,971.77 Z
    M 522.37,971.78
    C 522.37,971.78 509.51,959.07 509.51,959.07
      509.51,959.07 642.19,826.03 642.19,826.03
      642.19,826.03 827.88,826.00 827.88,826.00
      827.88,826.00 828.12,640.12 828.12,640.12
      828.12,640.12 961.04,507.52 961.04,507.52
      961.04,507.52 973.45,519.93 973.45,519.93
      973.45,519.93 847.94,645.19 847.94,645.19
      847.94,645.19 847.94,845.88 847.94,845.88
      847.94,845.88 648.19,845.94 648.19,845.94
      648.19,845.94 522.37,971.78 522.37,971.78 Z
    M 985.96,506.54
    C 985.96,506.54 1017.00,475.35 1017.00,475.35
      1017.00,475.35 890.92,349.94 890.92,349.94
      890.92,349.94 891.00,125.02 891.00,125.02
      891.00,125.02 666.91,124.82 666.91,124.82
      666.91,124.82 540.96,-1.17 540.96,-1.17
      540.96,-1.17 509.53,30.06 509.53,30.06
      509.53,30.06 521.92,42.48 521.92,42.48
      521.92,42.48 540.52,23.83 540.52,23.83
      540.52,23.83 660.33,143.82 660.33,143.82
      660.33,143.82 873.07,144.00 873.07,144.00
      873.07,144.00 873.02,355.84 873.02,355.84
      873.02,355.84 993.17,475.49 993.17,475.49
      993.17,475.49 973.93,494.56 973.93,494.56
      973.93,494.56 985.96,506.54 985.96,506.54 Z
    M 961.04,507.52
    C 961.04,507.52 973.94,494.56 973.94,494.56
      973.94,494.56 847.91,368.78 847.91,368.78
      847.91,368.78 848.04,170.00 848.04,170.00
      848.04,170.00 649.13,169.83 649.13,169.83
      649.13,169.83 521.92,42.48 521.92,42.48
      521.92,42.48 509.49,54.91 509.49,54.91
      509.49,54.91 642.47,187.72 642.47,187.72
      642.47,187.72 829.00,188.03 829.00,188.03
      829.00,188.03 829.03,375.88 829.03,375.88
      829.03,375.88 961.04,507.52 961.04,507.52 Z"></path></svg>